<svg width="24" height="24" viewBox="0 0 24 24" fill="none" xmlns="http://www.w3.org/2000/svg">
    <path d="M13.325 3.05011L8.66741 20.4323C8.47576 21.3153 7.63288 21.8775 6.74973 21.6859C5.86658 21.4942 5.30444 20.6513 5.49609 19.7682L10.1537 2.38597C10.3453 1.50282 11.1882 0.940678 12.0714 1.13233C12.9545 1.32398 13.5167 2.16686 13.325 3.05011Z" fill="currentColor"/>
    <path d="M17.7284 7.44526L7.8932 15.8839C7.16469 16.4964 6.11762 16.4254 5.50518 15.6969C4.89274 14.9684 4.96371 13.9213 5.69222 13.3088L15.5274 4.87021C16.2559 4.25777 17.303 4.32874 17.9154 5.05725C18.5279 5.78576 18.4569 6.83283 17.7284 7.44526Z" fill="currentColor"/>
    <path d="M18.2583 17.7349L5.49609 19.7682L7.8932 15.8839L15.5274 4.87021L18.2583 17.7349Z" fill="currentColor" fill-opacity="0.2"/>
</svg> 